<svg width="649" height="768" viewBox="0 0 649 768" fill="none" xmlns="http://www.w3.org/2000/svg">
<path opacity="0.0991676" d="M151.755 771.353L-297.256 505.729C-311.551 497.683 -323.804 484.501 -309.875 475.852L140.733 215.89C147.487 211.696 157.751 208.944 164.636 212.954L635.901 486.781C650.197 495.089 652.762 518.231 638.52 526.618L210.925 770.933C192.663 781.537 170.165 781.697 151.755 771.353Z" fill="#6862E6"/>
<path opacity="0.0991676" d="M151.755 395.353L-297.256 129.729C-311.551 121.683 -323.804 108.501 -309.875 99.8518L140.733 -160.11C147.487 -164.304 157.751 -167.056 164.636 -163.046L635.901 110.781C650.197 119.089 652.762 142.231 638.52 150.618L210.925 394.933C192.663 405.537 170.165 405.697 151.755 395.353Z" stroke="#1E1F36"/>
<path opacity="0.0991676" d="M151.755 470.353L-297.256 204.729C-311.551 196.683 -323.804 183.501 -309.875 174.852L140.733 -85.1103C147.487 -89.3037 157.751 -92.0556 164.636 -88.0457L635.901 185.781C650.197 194.089 652.762 217.231 638.52 225.618L210.925 469.933C192.663 480.537 170.165 480.697 151.755 470.353Z" stroke="#1E1F36"/>
<path d="M405.018 554.203L185.313 424.211C178.318 420.273 172.323 413.821 179.138 409.589L399.625 282.367C402.93 280.315 407.952 278.968 411.321 280.93L641.916 414.937C648.91 419.003 650.166 430.329 643.197 434.433L433.971 553.998C425.035 559.187 414.026 559.265 405.018 554.203Z" fill="#5B36A0"/>
<path d="M405.018 548.203L185.313 418.211C178.318 414.273 172.323 407.821 179.138 403.589L399.625 276.367C402.93 274.315 407.952 272.968 411.321 274.93L641.916 408.937C648.91 413.003 650.166 424.329 643.197 428.433L433.971 547.998C425.035 553.187 414.026 553.265 405.018 548.203Z" fill="#6862E6"/>
<g style="mix-blend-mode:multiply" opacity="0.25">
<path d="M423.133 376.693L379.781 401.46C379.781 401.46 446.564 442.259 460.22 448.006L485.188 412.093" fill="url(#paint0_linear_3_3)"/>
</g>
<g style="mix-blend-mode:multiply" opacity="0.25">
<path d="M408.157 495.513L364.792 470.797L321.428 495.565C321.428 495.565 344.013 509.366 365.599 522.038C379.307 512.328 393.027 502.516 408.157 495.513Z" fill="url(#paint1_linear_3_3)"/>
</g>
<g style="mix-blend-mode:multiply" opacity="0.46">
<path d="M314.728 342.883L287.223 358.595C287.223 358.595 289.554 372.999 303.211 378.745L339.222 355.658" fill="url(#paint2_linear_3_3)"/>
</g>
<ellipse cx="328.192" cy="346.898" rx="16.59" ry="11.6974" fill="#68E1FD"/>
<ellipse cx="328.179" cy="339.997" rx="12.4265" ry="5.09196" fill="#974C26"/>
<path fill-rule="evenodd" clip-rule="evenodd" d="M327.474 324.619C327.654 326.914 327.73 329.21 327.73 331.506C327.718 334.379 327.577 337.252 327.269 340.113C326.283 338.74 325.309 337.304 324.284 335.688C322.965 333.623 321.735 331.506 320.608 329.339C319.56 327.411 318.664 325.404 317.93 323.336C317.114 321.09 316.459 318.788 315.97 316.448C315.842 315.884 315.727 315.217 315.624 314.601V314.383V313.845C315.522 312.639 315.419 311.356 315.419 310.074C315.362 305.712 316.204 301.385 317.892 297.363C322.377 303.876 325.401 311.284 326.757 319.078C326.842 319.539 326.923 320.005 327 320.476C327 320.386 327.18 321.322 327.18 321.669L327.308 322.836C327.368 323.426 327.423 324.02 327.474 324.619ZM321.21 305.687C321.21 305.687 321.21 305.687 321.21 305.687H321.197C321.201 305.687 321.206 305.687 321.21 305.687ZM321.21 305.687C321.525 305.669 321.841 305.704 322.145 305.79C321.838 305.448 321.526 305.114 321.21 304.789C321.275 305.085 321.276 305.391 321.21 305.687Z" fill="#999A1C"/>
<path fill-rule="evenodd" clip-rule="evenodd" d="M335.494 327.338C334.405 329.428 333.278 331.34 331.996 333.276C330.446 335.7 328.73 338.035 327.026 340.305C326.911 338.625 326.911 336.88 326.911 334.969C326.911 332.52 327.013 330.083 327.244 327.646C327.402 325.456 327.732 323.281 328.23 321.143C328.753 318.809 329.443 316.516 330.293 314.281C330.523 313.691 330.767 313.114 331.01 312.537L331.01 312.537L331.074 312.331L331.33 311.857C331.907 310.741 332.522 309.638 333.188 308.573C335.502 304.868 338.554 301.68 342.155 299.21C342.416 307.124 340.96 315 337.889 322.297C337.71 322.716 337.526 323.144 337.339 323.58L336.839 324.683L336.314 325.747C336.049 326.278 335.776 326.808 335.494 327.338ZM340.887 307.239C340.801 307.529 340.652 307.796 340.452 308.022C340.702 308.154 340.93 308.322 341.131 308.522C341.062 308.112 340.981 307.684 340.887 307.239Z" fill="#999A1C"/>
<path fill-rule="evenodd" clip-rule="evenodd" d="M335.75 336.919C334.478 337.663 333.196 338.355 331.907 338.997C330.293 339.805 328.64 340.523 326.987 341.216C327.474 340.279 328.025 339.317 328.64 338.291C329.447 337.009 330.293 335.726 331.202 334.443C331.993 333.312 332.871 332.244 333.828 331.25C334.865 330.158 335.978 329.142 337.159 328.21L338.107 327.505L338.21 327.415L338.504 327.235C339.183 326.825 339.862 326.427 340.567 326.068C343.004 324.814 345.673 324.076 348.407 323.9C345.997 328.25 342.676 332.026 338.671 334.969L337.954 335.495L337.339 335.931L336.711 336.329L335.75 336.919ZM345.102 327.812C344.963 327.941 344.796 328.038 344.615 328.095V328.107C344.701 328.268 344.761 328.441 344.794 328.62C344.906 328.355 345.008 328.086 345.102 327.812Z" fill="#999A1C"/>
<path fill-rule="evenodd" clip-rule="evenodd" d="M327.474 324.619C327.654 326.914 327.73 329.21 327.73 331.506C327.718 334.379 327.577 337.252 327.269 340.113C326.283 338.74 325.309 337.304 324.284 335.688C322.965 333.623 321.735 331.506 320.608 329.339C319.56 327.411 318.664 325.404 317.93 323.336C317.114 321.09 316.459 318.788 315.97 316.448C315.842 315.884 315.727 315.217 315.624 314.601V314.383V313.845C315.522 312.639 315.419 311.356 315.419 310.074C315.362 305.712 316.204 301.385 317.892 297.363C322.377 303.876 325.401 311.284 326.757 319.078C326.842 319.539 326.923 320.005 327 320.476C327 320.386 327.18 321.322 327.18 321.669L327.308 322.836C327.368 323.426 327.423 324.02 327.474 324.619ZM321.21 305.687C321.21 305.687 321.21 305.687 321.21 305.687H321.197C321.201 305.687 321.206 305.687 321.21 305.687ZM321.21 305.687C321.525 305.669 321.841 305.704 322.145 305.79C321.838 305.448 321.526 305.114 321.21 304.789C321.275 305.085 321.276 305.391 321.21 305.687Z" fill="#999A1C"/>
<path fill-rule="evenodd" clip-rule="evenodd" d="M335.494 327.338C334.405 329.428 333.278 331.34 331.996 333.276C330.446 335.7 328.73 338.035 327.026 340.305C326.911 338.625 326.911 336.88 326.911 334.969C326.911 332.52 327.013 330.083 327.244 327.646C327.402 325.456 327.732 323.281 328.23 321.143C328.753 318.809 329.443 316.516 330.293 314.281C330.523 313.691 330.767 313.114 331.01 312.537L331.01 312.537L331.074 312.331L331.33 311.857C331.907 310.741 332.522 309.638 333.188 308.573C335.502 304.868 338.554 301.68 342.155 299.21C342.416 307.124 340.96 315 337.889 322.297C337.71 322.716 337.526 323.144 337.339 323.58L336.839 324.683L336.314 325.747C336.049 326.278 335.776 326.808 335.494 327.338ZM340.887 307.239C340.801 307.529 340.652 307.796 340.452 308.022C340.702 308.154 340.93 308.322 341.131 308.522C341.062 308.112 340.981 307.684 340.887 307.239Z" fill="#999A1C"/>
<path fill-rule="evenodd" clip-rule="evenodd" d="M335.75 336.919C334.478 337.663 333.196 338.355 331.907 338.997C330.293 339.805 328.64 340.523 326.987 341.216C327.474 340.279 328.025 339.317 328.64 338.291C329.447 337.009 330.293 335.726 331.202 334.443C331.993 333.312 332.871 332.244 333.828 331.25C334.865 330.158 335.978 329.142 337.159 328.21L338.107 327.505L338.21 327.415L338.504 327.235C339.183 326.825 339.862 326.427 340.567 326.068C343.004 324.814 345.673 324.076 348.407 323.9C345.997 328.25 342.676 332.026 338.671 334.969L337.954 335.495L337.339 335.931L336.711 336.329L335.75 336.919ZM345.102 327.812C344.963 327.941 344.796 328.038 344.615 328.095V328.107C344.701 328.268 344.761 328.441 344.794 328.62C344.906 328.355 345.008 328.086 345.102 327.812Z" fill="#999A1C"/>
<path d="M440.35 367.022L416.356 378.565C414.513 379.452 413.311 381.285 413.231 383.33C413.15 385.375 414.205 387.297 415.971 388.326L472.839 421.545C475.392 423.04 478.669 422.254 480.269 419.763L494.092 398.24" fill="#A1482D"/>
<path d="M570.854 311.344L379.525 200.962C376.853 199.424 373.566 199.428 370.898 200.973C368.23 202.517 366.587 205.368 366.586 208.453V323.285C366.586 325.851 367.953 328.222 370.173 329.505L574.146 447.39C575.578 448.221 577.345 448.222 578.778 447.393C580.211 446.565 581.093 445.032 581.09 443.375V329.018C581.084 321.717 577.18 314.976 570.854 311.344Z" fill="#F47B56"/>
<path d="M379.537 209.646L565.089 316.525C569.122 318.85 571.608 323.154 571.61 327.812V413.888C571.607 415.564 570.714 417.112 569.265 417.953C567.816 418.793 566.031 418.798 564.577 417.967L375.348 309.304C373.907 308.477 373.017 306.941 373.017 305.277V213.429C373.017 211.874 373.844 210.436 375.188 209.657C376.532 208.877 378.189 208.873 379.537 209.646Z" fill="white"/>
<ellipse cx="456.738" cy="367.465" rx="4.03558" ry="4.61719" transform="rotate(-10.9 456.738 367.465)" fill="#AB643C"/>
<path opacity="0.32" d="M429.41 326.427L515.639 378.296L558.235 353.503L482.126 309.15" fill="url(#paint3_linear_3_3)"/>
<path d="M535.97 316.102L442.746 259.193C441.73 258.604 440.474 258.615 439.468 259.22C438.461 259.825 437.862 260.93 437.903 262.104V294.529C437.896 295.722 438.513 296.832 439.53 297.453L532.742 353.157C533.739 353.724 534.962 353.717 535.952 353.138C536.942 352.559 537.549 351.496 537.546 350.348L538.033 320.117C538.106 318.507 537.321 316.979 535.97 316.102Z" fill="#E2AC00"/>
<path d="M513.667 332.789C517.01 337.47 522.89 338.779 526.785 335.726C530.679 332.673 531.128 326.401 527.784 321.733C524.44 317.064 518.56 315.743 514.666 318.796C510.771 321.848 510.323 328.107 513.667 332.789Z" fill="white"/>
<path d="M504.52 310.318L466.497 287.397C465.82 287.08 465.014 287.331 464.635 287.976C464.257 288.621 464.431 289.448 465.037 289.886L503.059 312.806C503.736 313.123 504.543 312.873 504.921 312.228C505.3 311.583 505.126 310.755 504.52 310.318Z" fill="#F2F2F2"/>
<path d="M502.957 319.629L450.548 288.039C449.885 287.807 449.152 288.084 448.808 288.697C448.464 289.31 448.609 290.081 449.151 290.527L501.496 322.13C502.173 322.448 502.98 322.197 503.358 321.552C503.737 320.907 503.563 320.08 502.957 319.642V319.629Z" fill="#F2F2F2"/>
<path d="M517.369 322.387L424.196 265.49C423.18 264.902 421.924 264.912 420.918 265.517C419.911 266.123 419.312 267.227 419.353 268.402V300.813C419.338 302.008 419.951 303.124 420.968 303.751L514.179 359.454C515.187 360.034 516.429 360.024 517.427 359.429C518.426 358.833 519.025 357.745 518.996 356.581L519.483 326.35C519.526 324.748 518.723 323.242 517.369 322.387Z" fill="#F47B56"/>
<path d="M495.065 339.074C498.409 343.755 504.289 345.063 508.184 342.011C512.078 338.958 512.526 332.686 509.183 328.018C505.839 323.349 499.959 322.028 496.065 325.08C492.17 328.133 491.722 334.392 495.065 339.074Z" fill="white"/>
<path d="M485.918 316.602L447.87 293.682C447.194 293.365 446.387 293.615 446.008 294.26C445.63 294.905 445.804 295.733 446.41 296.17L484.432 319.091C485.109 319.408 485.916 319.157 486.294 318.512C486.673 317.867 486.499 317.04 485.893 316.602H485.918Z" fill="#F2F2F2"/>
<path d="M484.343 325.978L431.946 294.336C431.27 294.019 430.463 294.27 430.084 294.914C429.706 295.559 429.88 296.387 430.486 296.824L482.895 328.415C483.572 328.732 484.378 328.482 484.757 327.837C485.136 327.192 484.962 326.364 484.355 325.927L484.343 325.978Z" fill="#F2F2F2"/>
<path d="M493.989 326.209L400.791 269.312C399.774 268.724 398.519 268.734 397.512 269.34C396.506 269.945 395.907 271.049 395.948 272.224V304.636C395.94 305.829 396.558 306.939 397.575 307.56L490.786 363.264C491.794 363.843 493.036 363.834 494.035 363.238C495.033 362.643 495.633 361.554 495.603 360.391L496.09 330.159C496.132 328.565 495.334 327.065 493.989 326.209Z" fill="#68E1FD"/>
<path d="M493.989 326.209L400.791 269.312C399.774 268.724 398.519 268.734 397.512 269.34C396.506 269.945 395.907 271.049 395.948 272.224V304.636C395.94 305.829 396.558 306.939 397.575 307.56L490.786 363.264C491.794 363.843 493.036 363.834 494.035 363.238C495.033 362.643 495.633 361.554 495.603 360.391L496.09 330.159C496.132 328.565 495.334 327.065 493.989 326.209Z" fill="#68E1FD"/>
<path d="M471.673 342.896C475.016 347.577 480.897 348.886 484.791 345.833C488.686 342.78 489.134 336.508 485.79 331.84C482.447 327.171 476.566 325.85 472.672 328.903C468.777 331.955 468.368 338.214 471.673 342.896Z" fill="white"/>
<path d="M462.526 320.424L424.491 297.504C423.814 297.187 423.007 297.438 422.629 298.083C422.25 298.728 422.424 299.555 423.03 299.993L461.053 322.913C461.729 323.23 462.536 322.979 462.915 322.334C463.293 321.689 463.119 320.862 462.513 320.424H462.526Z" fill="#F2F2F2"/>
<path d="M460.95 329.749L408.541 298.158C407.864 297.841 407.058 298.092 406.679 298.737C406.301 299.382 406.475 300.209 407.081 300.647L459.49 332.237C460.166 332.555 460.973 332.304 461.352 331.659C461.73 331.014 461.556 330.187 460.95 329.749Z" fill="#F2F2F2"/>
<path d="M371.672 323.028C365.649 328.218 361.094 334.901 358.464 342.408C353.826 355.235 365.42 376.192 365.42 376.192L383.458 361.891" fill="#FF8F6F"/>
<path d="M369.724 492.602L364.831 489.896L366.112 482.893C366.112 482.893 373.401 483.585 374.042 486.176" fill="#003B94"/>
<path d="M371.518 492.499C372.62 491.819 373.773 491.217 374.913 490.614C377.744 489.062 381.831 487.459 383.573 484.547C384.304 483.341 384.212 481.809 383.342 480.699C380.78 477.595 375.169 482.7 372.299 479.263C371.736 478.583 371.467 467.796 371.467 467.796L360.552 470.746C360.552 470.746 358.707 492.422 358.912 493.756C359.117 495.09 362.871 496.321 362.871 496.321C363.988 496.084 365.055 495.649 366.022 495.039C367.162 494.205 366.124 484.034 367.585 485.458C369.045 486.881 369.686 492.448 369.686 492.448C370.292 492.54 370.907 492.557 371.518 492.499Z" fill="#F47B56"/>
<path d="M390.568 503.081L385.674 500.413L386.955 493.41C386.955 493.41 394.244 494.103 394.885 496.693" fill="#003B94"/>
<path d="M392.412 502.978C393.514 502.298 394.667 501.696 395.807 501.093C398.638 499.541 402.725 497.938 404.467 495.026C405.198 493.82 405.106 492.288 404.237 491.178C401.674 488.074 396.063 493.179 393.194 489.742C392.63 489.062 392.361 478.275 392.361 478.275L381.446 481.225C381.446 481.225 379.589 502.978 379.794 504.261C379.999 505.543 383.752 506.826 383.752 506.826C384.87 506.588 385.937 506.154 386.904 505.543C388.044 504.71 387.006 494.539 388.467 495.962C389.927 497.386 390.568 502.953 390.568 502.953C391.179 503.037 391.799 503.046 392.412 502.978Z" fill="#F47B56"/>
<path d="M355.005 432.614L351.789 475.671C351.789 475.671 356.914 482.751 374.093 478.814L374.259 449.788" fill="#3E2928"/>
<path d="M374.849 441.144C374.477 444.85 374.849 485.74 374.849 485.74C374.849 485.74 379.601 494.641 400.291 485.74L399.996 450.994" fill="#3E2928"/>
<path d="M353.403 446.838C354.813 447.813 355.299 442.798 356.773 443.658C362.132 446.775 367.821 449.287 373.734 451.148H373.862C374.147 451.009 374.475 450.993 374.773 451.102C375.07 451.21 375.31 451.435 375.438 451.725C379.091 452.816 382.809 453.673 386.571 454.29C391.4 455.06 395.397 451.481 400.355 451.238C400.355 432.229 400.445 378.129 392.361 366.586L368.443 358.531C368.328 360.506 356.837 373.845 357.118 390.109C357.439 408.437 355.056 425.727 354.646 431.46C354.582 432.435 353.455 445.799 353.403 446.838Z" fill="#3E2928"/>
<path d="M394.564 344.73L392.361 366.534C392.361 366.534 374.516 367.252 366.829 361.942V343.447" fill="#FF8F6F"/>
<path d="M417.252 330.378L415.433 332.866C416.403 330.842 417.259 328.765 417.995 326.645C418.508 325.196 416.189 324.619 415.677 326.068L415.408 326.812C415.63 326.042 415.839 325.268 416.035 324.49C416.195 323.849 415.805 323.2 415.164 323.041C414.524 322.882 413.876 323.272 413.717 323.913C413.214 325.926 412.611 327.912 411.91 329.864C412.302 328.131 412.584 326.375 412.756 324.606C412.91 323.079 410.514 323.144 410.373 324.606C410.174 326.619 409.814 328.614 409.297 330.57C409.297 329.886 409.233 329.202 409.105 328.518C409.069 328.173 408.887 327.86 408.605 327.658C408.541 327.389 408.464 327.133 408.375 326.863C408.187 326.309 407.629 325.97 407.052 326.058C406.474 326.147 406.044 326.638 406.03 327.222L405.876 336.201C405.443 337.132 404.877 337.996 404.198 338.766C405.351 339.564 406.463 340.42 407.529 341.331C408.48 342.136 409.387 342.992 410.245 343.896C411.014 342.939 411.752 341.964 412.461 340.972C412.549 340.897 412.627 340.811 412.692 340.715C414.827 337.552 417.03 334.439 419.302 331.378C420.25 330.326 418.162 329.159 417.252 330.378Z" fill="#FFB5A9"/>
<path d="M383.24 324.849C383.24 324.849 391.669 327.12 395.09 332.545C397.232 336.3 399.119 340.195 400.739 344.204L406.965 334.52C406.965 334.52 414.524 336.842 417.521 340.561C417.521 340.561 408.554 360.185 400.739 361.866C392.925 363.546 384.623 350.348 384.623 350.348C384.623 350.348 382.907 355.863 383.24 349.976" fill="#FF8F6F"/>
<path d="M388.595 345.82C386.144 343.824 384.295 341.187 383.253 338.201C382.24 334.751 383.509 331.724 384.687 328.518C385.963 325.339 386.708 321.972 386.891 318.552C386.993 315.191 386.609 311.831 386.378 308.483C386.345 308.34 386.345 308.191 386.378 308.047C385.251 304.264 382.945 301.057 378.397 300.672C366.624 299.672 365.958 312.729 366.048 318.039C366.137 323.349 366.701 326.94 362.794 329.159C358.886 331.378 356.068 337.201 359.796 341.908C363.524 346.615 360.18 344.897 357.695 349.078C355.21 353.259 355.85 358.48 360.949 360.365C366.048 362.25 389.748 358.71 391.925 356.517C392.698 355.633 393.098 354.484 393.04 353.311C392.508 350.359 390.93 347.699 388.595 345.82Z" fill="#007F68"/>
<path fill-rule="evenodd" clip-rule="evenodd" d="M403.506 247.88C403.325 244.384 402.171 241.007 400.176 238.132C398.4 235.259 395.777 233.009 392.668 231.694C391.076 230.982 389.277 230.891 387.621 231.437C386.041 231.997 384.738 233.146 383.983 234.644C383.073 236.429 382.666 238.429 382.804 240.428C382.915 242.807 383.471 245.143 384.444 247.316C385.415 249.591 386.758 251.689 388.415 253.524C389.814 255.155 391.567 256.445 393.54 257.294C394.234 257.572 394.962 257.757 395.705 257.846C396.27 257.922 396.843 257.922 397.408 257.846C397.85 257.785 398.281 257.664 398.69 257.487C398.949 257.384 399.202 257.264 399.445 257.128L399.702 256.948L398.152 254.062L397.639 254.344C397.118 254.585 396.546 254.691 395.974 254.652C395.095 254.662 394.223 254.491 393.412 254.152C391.08 253.082 389.16 251.281 387.941 249.022C386.411 246.734 385.525 244.075 385.379 241.326C385.133 239.14 385.891 236.96 387.442 235.4C388.911 234.101 391.023 233.831 392.771 234.721C395.124 235.7 397.11 237.396 398.446 239.569C399.933 241.704 400.79 244.216 400.919 246.816C401.013 249.441 400.44 250.509 399.202 250.022C398.761 249.831 398.392 249.503 398.152 249.086C397.868 248.654 397.708 248.153 397.69 247.636L397.434 240.428L394.872 239.428V240.569L394.641 240.159C394.378 239.783 394.068 239.443 393.719 239.146C393.309 238.774 392.836 238.478 392.323 238.273C391.286 237.763 390.041 237.958 389.21 238.761C388.265 239.804 387.828 241.213 388.018 242.609C388.072 244.333 388.585 246.011 389.504 247.47C390.267 248.812 391.445 249.87 392.861 250.484C393.454 250.753 394.116 250.833 394.757 250.715C395.14 250.658 395.502 250.504 395.807 250.266C395.927 250.134 396.031 249.987 396.115 249.83L396.422 250.432C396.718 250.951 397.089 251.422 397.524 251.831C398.008 252.333 398.593 252.727 399.24 252.985C400.301 253.55 401.609 253.323 402.418 252.433C403.341 251.107 403.73 249.481 403.506 247.88ZM395.051 245.353C395.136 246.031 394.946 246.714 394.526 247.252C394.133 247.642 393.533 247.735 393.04 247.482C392.354 247.185 391.782 246.672 391.413 246.02C390.964 245.304 390.712 244.48 390.683 243.635C390.593 242.962 390.799 242.284 391.246 241.775C391.678 241.385 392.306 241.303 392.822 241.57C393.48 241.856 394.025 242.352 394.372 242.981C394.797 243.7 395.031 244.517 395.051 245.353Z" fill="#F47B56"/>
<path fill-rule="evenodd" clip-rule="evenodd" d="M554.764 386.761C554.586 383.264 553.432 379.887 551.433 377.013C549.721 374.108 547.152 371.805 544.079 370.421C542.482 369.715 540.68 369.623 539.019 370.164C537.44 370.732 536.138 371.884 535.381 373.383C534.471 375.164 534.063 377.16 534.202 379.155C534.312 381.534 534.869 383.87 535.842 386.043C536.813 388.322 538.155 390.424 539.813 392.263C541.214 393.89 542.966 395.176 544.938 396.021C545.628 396.302 546.351 396.492 547.09 396.586C547.66 396.661 548.237 396.661 548.807 396.586C549.246 396.517 549.676 396.397 550.088 396.227C550.348 396.124 550.6 396.004 550.844 395.867L551.1 395.688L549.55 392.802L549.037 393.084C548.515 393.32 547.944 393.426 547.372 393.392C546.492 393.392 545.622 393.217 544.81 392.879C542.482 391.86 540.542 390.121 539.275 387.915C537.743 385.629 536.857 382.97 536.713 380.22C536.441 378.029 537.182 375.833 538.725 374.256C540.198 372.964 542.308 372.699 544.054 373.589C546.4 374.568 548.38 376.259 549.716 378.424C551.202 380.565 552.059 383.08 552.189 385.684C552.266 388.313 551.74 389.377 550.459 388.89C550.018 388.699 549.65 388.371 549.409 387.954C549.129 387.52 548.97 387.02 548.948 386.504L548.691 379.296L546.129 378.309V379.45L545.886 379.04C545.622 378.66 545.312 378.316 544.963 378.014C544.554 377.641 544.081 377.345 543.567 377.141C542.534 376.633 541.294 376.828 540.467 377.629C539.515 378.669 539.078 380.08 539.275 381.477C539.329 383.206 539.847 384.89 540.774 386.351C541.535 387.698 542.713 388.761 544.131 389.377C544.72 389.647 545.379 389.723 546.014 389.596C546.398 389.542 546.76 389.387 547.064 389.147C547.182 389.013 547.285 388.867 547.372 388.711L547.679 389.313C547.978 389.83 548.349 390.301 548.781 390.711C549.268 391.211 549.852 391.604 550.498 391.866C551.559 392.426 552.864 392.2 553.675 391.314C554.598 389.988 554.987 388.362 554.764 386.761ZM546.321 384.234C546.402 384.914 546.208 385.597 545.783 386.132C545.387 386.519 544.788 386.607 544.297 386.351C543.61 386.048 543.039 385.53 542.67 384.876C542.221 384.163 541.969 383.344 541.94 382.503C541.851 381.828 542.061 381.148 542.517 380.643C542.951 380.257 543.578 380.18 544.092 380.451C544.748 380.736 545.289 381.233 545.63 381.861C546.061 382.579 546.299 383.397 546.321 384.234Z" fill="#F47B56"/>
<g style="mix-blend-mode:multiply" opacity="0.25">
<path d="M296.139 431.704L252.774 407.001L209.423 431.755C209.423 431.755 233.545 446.838 255.132 459.511C268.839 449.814 281.022 438.72 296.139 431.704Z" fill="url(#paint4_linear_3_3)"/>
</g>
<g filter="url(#filter0_d_3_3)">
<path fill-rule="evenodd" clip-rule="evenodd" d="M214.93 362.886V416.755L256.899 440.791L304.286 412.766V358.897" fill="#FF9271"/>
</g>
<path d="M256.899 386.922V440.791L304.286 412.766V358.897L256.899 386.922Z" fill="#DF5C34"/>
<path d="M214.93 362.886L263.624 335.13L304.286 358.897L256.899 386.922L214.93 362.886Z" fill="#F47B56"/>
<path fill-rule="evenodd" clip-rule="evenodd" d="M272.22 350.624C267.879 348.247 262.95 347.161 258.013 347.494C252.833 347.586 247.773 349.065 243.358 351.778C241.042 353.097 239.2 355.112 238.092 357.537C237.169 359.637 237.169 362.029 238.092 364.13C239.21 366.512 241.072 368.466 243.396 369.696C246.276 371.324 249.451 372.362 252.735 372.749C256.349 373.249 260.018 373.184 263.612 372.557C266.909 372.055 270.077 370.913 272.938 369.196C273.931 368.589 274.854 367.875 275.692 367.067C276.328 366.464 276.895 365.793 277.383 365.066C277.721 364.527 277.997 363.95 278.203 363.347C278.346 362.972 278.462 362.586 278.549 362.193C278.557 362.048 278.557 361.902 278.549 361.757L273.796 361.488L273.617 362.296C273.359 363.11 272.921 363.855 272.336 364.476C271.461 365.492 270.427 366.358 269.274 367.041C265.942 369.017 262.128 370.029 258.257 369.966C254.368 370.13 250.509 369.211 247.111 367.311C243.998 365.477 242.397 363.193 242.397 360.628C242.371 358.012 243.87 355.759 246.893 353.869C250.216 351.843 254.021 350.749 257.911 350.701C261.581 350.459 265.244 351.274 268.467 353.048C271.499 354.844 272.131 356.293 270.363 357.396C269.067 358.094 267.508 358.094 266.212 357.396L257.872 352.484L254.272 354.728L255.554 355.498H254.849C254.159 355.536 253.476 355.652 252.812 355.844C251.98 356.06 251.185 356.402 250.455 356.857C248.904 357.594 247.909 359.153 247.893 360.872C247.97 362.462 248.994 363.848 250.993 365.028C253.106 366.242 255.513 366.85 257.949 366.785C260.304 366.831 262.624 366.218 264.649 365.015C265.518 364.522 266.243 363.81 266.75 362.95C267.055 362.487 267.232 361.951 267.263 361.398C267.234 361.164 267.174 360.935 267.083 360.718L268.057 360.795C268.949 360.821 269.84 360.731 270.709 360.526C271.766 360.312 272.776 359.913 273.694 359.346C275.628 358.178 276.448 356.793 276.256 355.203C276.064 353.612 274.706 352.086 272.22 350.624ZM261.075 358.756C261.906 359.117 262.506 359.866 262.676 360.757H262.728C262.741 361.576 262.268 362.326 261.523 362.668C260.539 363.249 259.412 363.543 258.269 363.514C257.081 363.542 255.907 363.245 254.875 362.655C254.054 362.295 253.48 361.531 253.363 360.641C253.382 359.787 253.877 359.015 254.644 358.64C255.579 358.08 256.656 357.804 257.744 357.845C258.916 357.847 260.065 358.161 261.075 358.756Z" fill="#3E2928"/>
<defs>
<filter id="filter0_d_3_3" x="164.93" y="333.897" width="189.355" height="181.895" filterUnits="userSpaceOnUse" color-interpolation-filters="sRGB">
<feFlood flood-opacity="0" result="BackgroundImageFix"/>
<feColorMatrix in="SourceAlpha" type="matrix" values="0 0 0 0 0 0 0 0 0 0 0 0 0 0 0 0 0 0 127 0" result="hardAlpha"/>
<feOffset dy="25"/>
<feGaussianBlur stdDeviation="25"/>
<feColorMatrix type="matrix" values="0 0 0 0 0.209139 0 0 0 0 0.0691446 0 0 0 0 0.478091 0 0 0 0.497159 0"/>
<feBlend mode="normal" in2="BackgroundImageFix" result="effect1_dropShadow_3_3"/>
<feBlend mode="normal" in="SourceGraphic" in2="effect1_dropShadow_3_3" result="shape"/>
</filter>
<linearGradient id="paint0_linear_3_3" x1="422.715" y1="384.543" x2="411.685" y2="417.24" gradientUnits="userSpaceOnUse">
<stop stop-color="#78B46A"/>
<stop offset="0.03" stop-color="#7F3500"/>
<stop offset="1" stop-color="white"/>
</linearGradient>
<linearGradient id="paint1_linear_3_3" x1="350.536" y1="451.477" x2="331.981" y2="509.838" gradientUnits="userSpaceOnUse">
<stop stop-color="#78B46A"/>
<stop offset="0.03" stop-color="#7F3500"/>
<stop offset="1" stop-color="white"/>
</linearGradient>
<linearGradient id="paint2_linear_3_3" x1="304.7" y1="329.002" x2="287.536" y2="368.625" gradientUnits="userSpaceOnUse">
<stop stop-color="#78B46A"/>
<stop offset="0.03" stop-color="#7F3500"/>
<stop offset="1" stop-color="white"/>
</linearGradient>
<linearGradient id="paint3_linear_3_3" x1="545.656" y1="364.452" x2="538.951" y2="347.459" gradientUnits="userSpaceOnUse">
<stop stop-color="white" stop-opacity="0.01"/>
<stop offset="0.99" stop-color="#DC841E"/>
</linearGradient>
<linearGradient id="paint4_linear_3_3" x1="239.555" y1="387.349" x2="220.033" y2="445.801" gradientUnits="userSpaceOnUse">
<stop stop-color="#78B46A"/>
<stop offset="0.03" stop-color="#7F3500"/>
<stop offset="1" stop-color="white"/>
</linearGradient>
</defs>
</svg>
